<svg width="437" height="86" viewBox="0 0 437 86" fill="none" xmlns="http://www.w3.org/2000/svg">
<path d="M136.146 9.17329C136.724 9.01964 137.341 9.13488 137.842 9.44219C138.459 9.82632 138.921 10.4409 139.075 11.1708C139.152 11.4781 139.191 11.8238 139.191 12.1311L139.808 53.0029C139.846 53.5023 139.692 53.9633 139.384 54.3474C139.152 54.6931 138.805 54.962 138.42 55.1157C137.996 55.2309 137.572 55.2309 137.148 55.0773C136.685 54.8852 136.261 54.5395 135.992 54.1169L118.492 26.0368L118.993 26.0752L119.725 58.9186C119.725 59.4564 119.532 59.9558 119.185 60.3783C118.916 60.724 118.569 60.9929 118.145 61.1082C117.759 61.1466 117.335 61.1082 116.988 60.9545C116.526 60.7624 116.179 60.4551 115.909 60.0326L94.0146 25.4221C93.8219 25.1533 93.7062 24.8459 93.5906 24.5386C93.3208 23.8472 93.3979 23.0405 93.7833 22.3875C94.0531 21.8497 94.5157 21.4272 95.0939 21.2351C95.5179 21.1198 95.9805 21.1583 96.3659 21.3119C96.8285 21.504 97.2139 21.8497 97.4838 22.3107L116.834 53.1566L116.063 53.3871L115.138 20.4284C115.138 19.929 115.292 19.4681 115.523 19.0455C115.755 18.6614 116.102 18.3925 116.526 18.2773C116.95 18.162 117.412 18.162 117.836 18.3541C118.299 18.5462 118.646 18.8919 118.916 19.3144L135.799 47.1641L135.221 47.6635L134.527 11.3629C134.488 10.8635 134.642 10.3641 134.912 9.90315C135.298 9.59584 135.683 9.28853 136.146 9.17329Z" fill="#DB1144"/>
<path d="M83.1445 24.6155H78.2491C77.7866 24.6155 77.4396 24.2313 77.4396 23.8088V19.0071C77.4396 18.5462 77.7866 18.2004 78.2491 18.2004H83.106C83.5685 18.2004 83.9154 18.5846 83.9154 19.0071V23.7704C83.954 24.2313 83.5685 24.6155 83.1445 24.6155Z" fill="url(#paint0_linear_1_51)"/>
<path d="M64.9121 17.8163H58.7832C58.205 17.8163 57.781 17.3553 57.781 16.7791V10.8251C57.781 10.2489 58.2436 9.82632 58.7832 9.7879H64.9121C65.4903 9.7879 65.9143 10.2489 65.9143 10.8251V16.8175C65.9143 17.3553 65.4903 17.8163 64.9121 17.8163Z" fill="url(#paint1_linear_1_51)"/>
<path d="M52.6929 36.562C50.8041 35.448 48.6455 34.9103 46.4869 34.9487C43.1334 34.9487 39.9726 36.4468 37.8525 39.0205C37.5442 39.3662 37.2743 39.7888 37.0431 40.1729V25.9984C37.0431 25.6142 36.8889 25.2685 36.6191 24.9996C36.3107 24.6923 35.9252 24.5386 35.5012 24.5771C35.0772 24.5771 34.6532 24.7307 34.3448 24.9996C34.0364 25.2685 33.8823 25.6142 33.8823 25.9984V58.6881C33.8823 59.0723 34.0364 59.4948 34.3448 59.7637C34.6532 60.071 35.0772 60.2247 35.5012 60.1862C35.9252 60.1862 36.3107 60.0326 36.6191 59.7637C36.8889 59.4948 37.0816 59.1107 37.0431 58.6881V55.5766C37.2743 55.884 37.5056 56.1913 37.7369 56.4986C38.4307 57.3052 39.2402 57.9967 40.1268 58.5729C41.0519 59.1875 42.0541 59.6485 43.1334 59.9558C44.2512 60.3015 45.4076 60.4936 46.564 60.4936C48.7226 60.532 50.8812 59.9558 52.7314 58.8034C54.5817 57.6894 56.0464 56.076 57.0872 54.1938C58.1665 52.1579 58.7061 49.8915 58.6676 47.6251C58.7061 45.3203 58.1665 43.0539 57.0872 41.018C56.0079 39.1741 54.5046 37.6376 52.6929 36.562ZM54.3504 52.8109C53.5794 54.309 52.4616 55.5766 51.0354 56.4986C49.6092 57.4205 47.9131 57.8814 46.2171 57.843C44.4825 57.8814 42.7865 57.4205 41.3217 56.537C39.8955 55.6535 38.7391 54.3858 37.9682 52.8877C37.1587 51.2743 36.7347 49.4689 36.7732 47.6635C36.7347 45.8581 37.1587 44.091 37.9682 42.4777C38.7391 41.018 39.8955 39.7888 41.3217 38.9437C42.825 38.0602 44.5211 37.6376 46.2171 37.676C49.6477 37.5608 52.8085 39.443 54.3504 42.4777C55.1984 44.091 55.5839 45.8581 55.5839 47.6635C55.5839 49.4689 55.1598 51.2359 54.3504 52.8109Z" fill="white"/>
<path d="M89.5047 47.3562C89.813 47.1257 89.9672 46.7416 89.9672 46.3574C90.0058 43.1307 88.6181 40.0192 86.1897 37.8681C85.0718 36.9077 83.7998 36.1395 82.3736 35.6401C80.9474 35.1407 79.4441 34.9102 77.9407 34.9102C75.8978 34.9102 73.8548 35.448 72.0817 36.4852C70.2315 37.5608 68.6511 39.0589 67.5718 40.9411C66.4154 42.8618 65.8372 45.1666 65.8372 47.894C65.7986 50.1988 66.3768 52.5036 67.5332 54.5011C68.6511 56.3833 70.3086 57.9199 72.2744 58.9186C74.4716 60.0326 76.9 60.5704 79.3284 60.4935C81.2172 60.4935 83.0674 60.071 84.7635 59.2259C86.2668 58.4961 87.6544 57.4589 88.8108 56.2297C89.1192 55.9992 89.3119 55.615 89.3505 55.2309C89.3505 54.8852 89.1963 54.5779 88.965 54.3858C88.6952 54.1169 88.3483 54.0017 88.0014 54.0017C87.6159 54.0017 87.2304 54.1553 86.9221 54.4242C86.3824 55.0389 85.7657 55.6151 85.0718 56.076C84.3009 56.6138 83.4143 57.0363 82.5278 57.3436C81.487 57.6894 80.4077 57.843 79.3284 57.8046C77.3626 57.8814 75.4352 57.3821 73.7006 56.4601C72.1973 55.6151 70.9639 54.3474 70.1544 52.8109C69.3064 51.2359 68.8824 49.5073 68.9209 47.7403H88.4639C88.8108 47.7403 89.1963 47.6251 89.5047 47.3562ZM69.6918 43.2075C70.1929 42.0167 70.9253 40.9796 71.8504 40.0961C72.6984 39.2894 73.7007 38.6748 74.8185 38.2906C75.8207 37.9065 76.9 37.7144 77.9793 37.7144C79.3284 37.7144 80.7161 38.0217 81.9496 38.5595C83.1831 39.0973 84.3009 39.9424 85.1875 40.9411C86.1126 42.0167 86.6522 43.3612 86.7293 44.7441V45.1282H69.1136C69.2293 44.4752 69.422 43.8222 69.6918 43.2075Z" fill="white"/>
<path d="M169.373 37.8681C168.255 36.9077 166.983 36.1395 165.557 35.6401C164.13 35.1407 162.627 34.9102 161.124 34.9102C159.081 34.9102 157.038 35.448 155.265 36.4852C153.415 37.5608 151.834 39.0973 150.755 40.9411C149.598 42.8618 149.02 45.1666 149.02 47.894C148.982 50.1988 149.56 52.5036 150.716 54.5011C151.834 56.3833 153.492 57.9199 155.457 58.9186C157.655 60.0326 160.083 60.5704 162.511 60.4935C164.4 60.4935 166.25 60.071 167.947 59.2259C169.45 58.4961 170.837 57.4589 171.994 56.2297C172.302 55.9992 172.495 55.615 172.495 55.2309C172.495 54.8852 172.341 54.5779 172.11 54.3858C171.84 54.1169 171.493 54.0017 171.146 54.0017C170.76 54.0017 170.375 54.1553 170.067 54.4242C169.527 55.0389 168.91 55.6151 168.216 56.076C167.445 56.6138 166.559 57.0363 165.672 57.3436C164.632 57.6894 163.552 57.843 162.473 57.8046C160.507 57.8814 158.58 57.3821 156.845 56.4601C155.342 55.6151 154.108 54.3474 153.299 52.8109C152.451 51.2359 152.027 49.5073 152.065 47.7403H171.608C171.994 47.7403 172.379 47.5867 172.688 47.3178C172.996 47.0873 173.15 46.7031 173.15 46.319C173.15 43.1307 171.763 40.0192 169.373 37.8681ZM169.874 45.1666H152.258C152.412 44.5136 152.605 43.8606 152.836 43.2075C153.337 42.0167 154.07 40.9796 154.995 40.0961C155.843 39.2894 156.845 38.6748 157.924 38.2906C158.927 37.9065 160.006 37.7144 161.085 37.7144C162.473 37.7144 163.822 38.0217 165.056 38.5595C166.289 39.0973 167.407 39.9424 168.293 40.9411C169.219 42.0167 169.758 43.3612 169.835 44.7441V45.1666H169.874Z" fill="white"/>
<path d="M205.221 41.0564C204.219 39.2126 202.715 37.676 200.904 36.562C199.015 35.448 196.856 34.9103 194.659 34.9487C191.306 34.9487 188.145 36.4468 185.986 39.0205C185.678 39.3662 185.408 39.7888 185.177 40.1729V25.9984C185.177 25.6142 185.023 25.2685 184.753 24.9996C184.444 24.6923 184.059 24.5386 183.635 24.5771C183.211 24.5771 182.787 24.7307 182.478 24.9996C182.209 25.2685 182.054 25.6142 182.054 25.9984V58.6881C182.054 59.0723 182.209 59.4948 182.517 59.7637C182.825 60.0326 183.249 60.2247 183.673 60.1862C184.097 60.1862 184.483 60.0326 184.791 59.7637C185.061 59.4948 185.254 59.1107 185.215 58.6881V55.5382C185.447 55.8455 185.678 56.1913 185.948 56.4602C186.641 57.2668 187.451 57.9583 188.338 58.5345C189.263 59.1491 190.265 59.61 191.306 59.9558C192.423 60.3015 193.58 60.4936 194.736 60.4936C196.895 60.532 199.053 59.9558 200.904 58.8034C202.754 57.6894 204.219 56.076 205.259 54.1938C206.339 52.1579 206.878 49.8915 206.878 47.6251C206.878 45.3587 206.339 43.0539 205.221 41.0564ZM202.561 52.8109C201.79 54.309 200.672 55.5766 199.246 56.4986C197.82 57.4205 196.124 57.8814 194.428 57.843C192.693 57.8814 190.997 57.4205 189.532 56.537C188.106 55.6535 186.95 54.3858 186.179 52.8877C185.369 51.2743 184.945 49.4689 184.984 47.6635C184.945 45.8581 185.369 44.091 186.179 42.4777C186.95 41.018 188.106 39.7888 189.532 38.9437C191.036 38.0602 192.732 37.6376 194.428 37.676C197.858 37.5608 201.019 39.443 202.561 42.4777C203.409 44.091 203.795 45.8581 203.756 47.6635C203.833 49.4689 203.409 51.2359 202.561 52.8109Z" fill="white"/>
<path d="M243.844 30.6848C243.844 30.9921 243.729 31.2994 243.497 31.6451C243.189 31.9908 242.842 32.1829 242.379 32.1829C242.11 32.1829 241.84 32.1061 241.609 31.9524C238.987 30.2238 236.135 29.3787 233.013 29.3787C230.353 29.3787 227.963 29.9933 225.843 31.2226C223.685 32.4518 222.027 34.1804 220.794 36.4468C219.56 38.6748 218.943 41.21 218.943 44.0526C218.943 46.972 219.56 49.5073 220.794 51.7353C222.027 53.9633 223.723 55.6919 225.882 56.9211C228.04 58.1503 230.392 58.7649 233.013 58.7649C236.135 58.7649 238.949 57.9199 241.531 56.2297C241.801 56.076 242.071 55.9992 242.379 55.9992C242.842 55.9992 243.227 56.1912 243.497 56.5754C243.729 56.8443 243.844 57.1516 243.844 57.4973C243.844 58.0351 243.613 58.4192 243.15 58.6881C241.878 59.5332 240.298 60.2631 238.448 60.8009C236.598 61.3771 234.786 61.646 233.013 61.646C229.89 61.646 227.038 60.9161 224.417 59.418C221.796 57.9199 219.676 55.8455 218.134 53.195C216.592 50.5061 215.821 47.4714 215.821 44.0526C215.821 40.7491 216.592 37.7912 218.134 35.1023C219.676 32.4134 221.757 30.3006 224.378 28.8025C226.999 27.3044 229.89 26.5361 233.051 26.5361C234.901 26.5361 236.675 26.805 238.409 27.3044C240.144 27.8422 241.724 28.572 243.15 29.494C243.574 29.7629 243.844 30.147 243.844 30.6848Z" fill="white"/>
<path d="M273.178 36.6004C273.448 36.9077 273.602 37.2535 273.602 37.676V59.6869C273.602 60.1094 273.448 60.4551 273.178 60.724C272.908 60.9929 272.561 61.1466 272.137 61.1466C271.713 61.1466 271.366 60.9929 271.097 60.724C270.827 60.4551 270.673 60.1094 270.673 59.6869V56.4217C269.863 57.8814 268.63 59.1107 267.011 60.1478C265.392 61.1466 263.58 61.6459 261.653 61.6459C259.456 61.6459 257.49 61.0697 255.755 59.9173C254.02 58.7649 252.633 57.2284 251.631 55.2309C250.628 53.2334 250.127 51.0054 250.127 48.547C250.127 46.0885 250.628 43.8606 251.631 41.8631C252.633 39.904 254.02 38.3674 255.794 37.2535C257.528 36.1395 259.494 35.6017 261.614 35.6017C263.58 35.6017 265.392 36.0626 267.011 37.023C268.63 37.9833 269.863 39.2125 270.673 40.7491V37.7144C270.673 37.2919 270.827 36.9462 271.097 36.6388C271.366 36.3315 271.713 36.2163 272.137 36.2163C272.561 36.1395 272.908 36.2931 273.178 36.6004ZM266.51 57.5357C267.859 56.6522 268.938 55.3846 269.709 53.8096C270.48 52.2347 270.865 50.4677 270.865 48.5086C270.865 46.6263 270.48 44.8977 269.709 43.3228C268.938 41.7478 267.859 40.5186 266.51 39.6351C265.16 38.7516 263.619 38.2906 261.922 38.2906C260.226 38.2906 258.685 38.7132 257.335 39.5967C255.986 40.4802 254.907 41.7094 254.136 43.2459C253.365 44.7825 252.98 46.5495 252.98 48.5086C252.98 50.4677 253.365 52.2347 254.098 53.8096C254.869 55.3846 255.909 56.6138 257.258 57.5357C258.608 58.4192 260.149 58.8802 261.884 58.8802C263.619 58.8802 265.16 58.4192 266.51 57.5357Z" fill="white"/>
<path d="M305.171 25.3837C305.441 25.6526 305.595 25.9983 305.595 26.4209V59.6484C305.595 60.071 305.441 60.4167 305.171 60.6856C304.902 60.9545 304.555 61.1082 304.131 61.1082C303.707 61.1082 303.36 60.9545 303.09 60.6856C302.82 60.4167 302.666 60.071 302.666 59.6484V56.2297C301.856 57.7278 300.623 58.9954 299.004 60.0326C297.385 61.0697 295.612 61.6075 293.646 61.6075C291.487 61.6075 289.522 61.0313 287.787 59.9173C286.052 58.8034 284.665 57.2284 283.624 55.2309C282.622 53.2334 282.121 51.0054 282.121 48.547C282.121 46.0885 282.622 43.899 283.624 41.9015C284.626 39.904 286.014 38.3674 287.787 37.215C289.522 36.1011 291.487 35.5249 293.608 35.5249C295.535 35.5249 297.308 36.0242 298.965 36.9846C300.584 37.9449 301.856 39.1741 302.704 40.7107V26.4209C302.704 25.9983 302.859 25.6526 303.128 25.3837C303.398 25.1148 303.745 24.9612 304.169 24.9612C304.555 24.9612 304.902 25.1148 305.171 25.3837ZM298.503 57.5741C299.852 56.6906 300.931 55.4614 301.702 53.8864C302.473 52.3115 302.859 50.5445 302.859 48.5854C302.859 46.6647 302.473 44.9361 301.702 43.3612C300.931 41.7862 299.852 40.557 298.503 39.6735C297.154 38.79 295.612 38.329 293.916 38.329C292.22 38.329 290.678 38.79 289.329 39.6735C287.98 40.557 286.9 41.7862 286.13 43.3612C285.359 44.9361 284.973 46.6647 284.973 48.5854C284.973 50.5445 285.359 52.3115 286.13 53.848C286.9 55.423 287.941 56.6522 289.329 57.5357C290.678 58.4192 292.22 58.8802 293.916 58.8802C295.612 58.8802 297.154 58.4576 298.503 57.5741Z" fill="white"/>
<path d="M336.471 48.2013C336.163 48.4702 335.816 48.6238 335.43 48.6238H316.89C316.89 50.5829 317.275 52.3115 318.085 53.8864C318.894 55.423 320.012 56.6522 321.515 57.5357C323.018 58.4192 324.753 58.8802 326.796 58.8802C328.376 58.8802 329.764 58.5729 330.998 57.9198C332.231 57.2668 333.233 56.4217 334.004 55.423C334.351 55.1157 334.698 55.0004 335.045 55.0004C335.353 55.0004 335.662 55.1157 335.931 55.3846C336.201 55.6535 336.317 55.9223 336.317 56.2681C336.317 56.6138 336.163 56.9595 335.816 57.3052C334.775 58.5729 333.465 59.61 331.884 60.4167C330.304 61.2234 328.608 61.6459 326.873 61.6459C324.368 61.6459 322.132 61.1081 320.205 60.0326C318.277 58.957 316.774 57.4589 315.695 55.4998C314.615 53.5791 314.076 51.3127 314.076 48.7775C314.076 46.0885 314.615 43.7837 315.656 41.7478C316.735 39.7503 318.123 38.2138 319.896 37.1382C321.669 36.0626 323.558 35.5633 325.524 35.5633C327.49 35.5633 329.34 36.0242 331.036 36.9461C332.771 37.8681 334.158 39.2125 335.238 40.9411C336.317 42.7081 336.857 44.7825 336.895 47.2025C336.934 47.5866 336.779 47.9324 336.471 48.2013ZM320.282 40.3649C318.663 41.671 317.622 43.5532 317.159 45.9733H333.889V45.5892C333.734 44.1294 333.233 42.8618 332.424 41.7478C331.614 40.6722 330.574 39.8271 329.34 39.2509C328.107 38.6747 326.835 38.4059 325.524 38.4059C323.635 38.4059 321.901 39.0589 320.282 40.3649Z" fill="white"/>
<path d="M380.414 38.6748C381.802 40.4802 382.495 42.8618 382.495 45.8196V59.6484C382.495 60.071 382.341 60.4167 382.071 60.6856C381.802 60.9545 381.455 61.1082 381.031 61.1082C380.607 61.1082 380.26 60.9545 379.99 60.6856C379.72 60.4167 379.566 60.071 379.566 59.6484V45.9733C379.566 43.8221 379.065 42.0551 378.024 40.7107C376.983 39.3662 375.403 38.6748 373.244 38.6748C371.857 38.6748 370.585 38.9821 369.351 39.6351C368.118 40.2881 367.154 41.1716 366.383 42.2856C365.612 43.3996 365.265 44.6288 365.265 45.9349V59.61C365.265 60.0326 365.111 60.3783 364.841 60.6472C364.571 60.9161 364.224 61.0697 363.8 61.0697C363.376 61.0697 363.03 60.9161 362.76 60.6472C362.49 60.3783 362.336 60.0326 362.336 59.61V45.7812C362.336 43.6685 361.835 41.9399 360.871 40.6338C359.907 39.3278 358.365 38.6363 356.245 38.6363C354.896 38.6363 353.624 38.9436 352.429 39.5967C351.234 40.2497 350.271 41.1332 349.538 42.2088C348.806 43.2844 348.421 44.4752 348.421 45.7428V59.5716C348.421 59.9942 348.266 60.3399 347.996 60.6088C347.727 60.8777 347.38 61.0313 346.956 61.0313C346.532 61.0313 346.185 60.8777 345.915 60.6088C345.645 60.3399 345.491 59.9942 345.491 59.5716V37.676C345.491 37.2535 345.645 36.9077 345.915 36.6388C346.185 36.3699 346.532 36.2163 346.956 36.2163C347.38 36.2163 347.727 36.3699 347.996 36.6388C348.266 36.9077 348.421 37.2535 348.421 37.676V40.5186C349.307 39.1741 350.502 38.0601 352.005 37.1766C353.509 36.2931 355.089 35.8706 356.747 35.8706C358.635 35.8706 360.293 36.3315 361.642 37.2535C363.03 38.1754 363.993 39.5198 364.571 41.2484C365.265 39.8272 366.499 38.5595 368.349 37.4839C370.161 36.4084 372.011 35.8706 373.9 35.8706C376.829 35.9474 379.026 36.8693 380.414 38.6748Z" fill="white"/>
<path d="M412.138 36.1395C412.407 36.4084 412.562 36.7541 412.562 37.1766V58.7265C412.562 61.3002 412.061 63.4898 411.058 65.3336C410.056 67.139 408.63 68.5603 406.857 69.4823C405.045 70.4426 403.041 70.9036 400.766 70.9036C399.379 70.9036 398.107 70.7499 396.912 70.481C395.717 70.1737 394.715 69.7896 393.944 69.2902C393.25 68.8676 392.903 68.4067 392.903 67.8689C392.903 67.7921 392.941 67.6384 393.019 67.3695C393.134 67.0622 393.288 66.7933 393.52 66.6397C393.751 66.486 393.982 66.4092 394.252 66.4092C394.445 66.4092 394.638 66.4476 394.83 66.5628C396.912 67.7152 398.916 68.2914 400.805 68.2914C403.503 68.2914 405.662 67.4464 407.242 65.7562C408.823 64.066 409.632 61.7612 409.632 58.8033V57.0747C408.823 58.4576 407.628 59.5332 406.086 60.3783C404.544 61.2234 402.886 61.6075 401.075 61.6075C398.222 61.6075 396.064 60.7624 394.599 59.0722C393.134 57.3821 392.402 55.0773 392.402 52.1963V37.1766C392.402 36.7541 392.556 36.4084 392.826 36.1395C393.096 35.8706 393.443 35.7169 393.867 35.7169C394.291 35.7169 394.638 35.8706 394.907 36.1395C395.177 36.4084 395.331 36.7541 395.331 37.1766V51.7353C395.331 54.0785 395.832 55.8455 396.873 57.0747C397.914 58.2656 399.494 58.8802 401.692 58.8802C403.041 58.8802 404.313 58.5345 405.546 57.8814C406.78 57.2284 407.743 56.3449 408.476 55.2309C409.208 54.1553 409.594 52.9645 409.594 51.7353V37.1766C409.594 36.7541 409.748 36.4084 410.018 36.1395C410.287 35.8706 410.634 35.7169 411.058 35.7169C411.521 35.7169 411.868 35.8706 412.138 36.1395Z" fill="white"/>
<defs>
<linearGradient id="paint0_linear_1_51" x1="77.4478" y1="21.408" x2="83.9467" y2="21.408" gradientUnits="userSpaceOnUse">
<stop offset="0.17" stop-color="#E52056"/>
<stop offset="0.68" stop-color="#DF194D"/>
<stop offset="1" stop-color="#DA1245"/>
</linearGradient>
<linearGradient id="paint1_linear_1_51" x1="57.7891" y1="13.8021" x2="65.9224" y2="13.8021" gradientUnits="userSpaceOnUse">
<stop offset="0.17" stop-color="#E52056"/>
<stop offset="0.68" stop-color="#DF194D"/>
<stop offset="1" stop-color="#DA1245"/>
</linearGradient>
</defs>
</svg>
